<svg xmlns="http://www.w3.org/2000/svg" xmlns:xlink="http://www.w3.org/1999/xlink" width="500" zoomAndPan="magnify" viewBox="0 0 375 374.999991" height="500" preserveAspectRatio="xMidYMid meet" version="1.0"><defs><g/></defs><rect x="-37.5" width="450" fill="#ffffff" y="-37.499999" height="449.999989" fill-opacity="1"/><rect x="-37.5" width="450" fill="#ffffff" y="-37.499999" height="449.999989" fill-opacity="1"/><rect x="-37.5" width="450" fill="#000000" y="-37.499999" height="449.999989" fill-opacity="1"/><g fill="#ff914d" fill-opacity="1"><g transform="translate(119.576673, 187.295763)"><g><path d="M 64.132812 -20.28125 L 7.8125 -20.28125 L 0.273438 -1.78125 C -0.136719 -0.683594 0.410156 0 1.78125 0 L 63.996094 0 C 64.957031 0 65.640625 -0.683594 65.640625 -1.234375 L 65.640625 -19.046875 C 65.640625 -19.734375 65.09375 -20.28125 64.132812 -20.28125 Z M 1.507812 -89.214844 L 35.355469 -89.214844 L 16.171875 -41.25 L 38.644531 -41.25 L 65.367188 -107.851562 C 65.640625 -108.945312 65.09375 -109.632812 63.859375 -109.632812 L 1.507812 -109.632812 C 0.683594 -109.632812 0 -108.945312 0 -108.398438 L 0 -90.582031 C 0 -89.898438 0.683594 -89.214844 1.507812 -89.214844 Z M 1.507812 -89.214844 "/></g></g></g><g fill="#ffde59" fill-opacity="1"><g transform="translate(163.562235, 253.485108)"><g><path d="M 74.691406 -1.777344 C 67.851562 -16.964844 60.464844 -32.011719 53.625 -47.46875 C 64.570312 -51.4375 73.734375 -60.191406 73.734375 -76.882812 C 73.734375 -109.167969 42.957031 -109.441406 36.800781 -109.441406 L 1.367188 -109.441406 C 0.683594 -109.441406 0 -108.757812 0 -108.207031 L 0 -89.605469 L 36.800781 -89.605469 C 40.082031 -89.605469 52.941406 -88.921875 52.941406 -76.882812 C 52.941406 -64.84375 41.3125 -64.296875 36.800781 -64.296875 L 0 -64.296875 L 0 -1.230469 C 0 -0.683594 0.683594 0 1.367188 0 L 19.289062 0 C 20.109375 0 20.792969 -0.683594 20.792969 -1.230469 L 20.792969 -44.1875 L 32.558594 -44.1875 L 52.53125 -0.820312 C 52.667969 -0.410156 53.488281 0 53.898438 0 L 73.460938 0 C 74.554688 0 75.101562 -0.820312 74.691406 -1.777344 Z M 74.691406 -1.777344 "/></g></g></g><g fill="#ffffff" fill-opacity="1"><g transform="translate(131.009974, 297.555282)"><g><path d="M 0.859375 -0.828125 L 7.5 -11.125 L 1.46875 -11.125 L 1.46875 -12.3125 L 9.21875 -12.3125 L 9.21875 -11.484375 L 2.578125 -1.1875 L 9.28125 -1.1875 L 9.28125 0 L 0.859375 0 Z M 0.859375 -0.828125 "/></g></g></g><g fill="#ffffff" fill-opacity="1"><g transform="translate(151.31852, 297.555282)"><g><path d="M 7.328125 -3.875 L 2.734375 -3.875 L 1.484375 0 L 0.078125 0 L 4.296875 -12.3125 L 5.828125 -12.3125 L 10.015625 0 L 8.5625 0 Z M 6.96875 -4.984375 L 6.328125 -6.96875 C 5.828125 -8.53125 5.40625 -9.921875 5.0625 -11.140625 L 4.984375 -11.140625 C 4.566406 -9.628906 4.148438 -8.238281 3.734375 -6.96875 L 3.09375 -4.984375 Z M 6.96875 -4.984375 "/></g></g></g><g fill="#ffffff" fill-opacity="1"><g transform="translate(171.627066, 297.555282)"><g><path d="M 8.484375 0 L 5.4375 -5.328125 L 3.109375 -5.328125 L 3.109375 0 L 1.71875 0 L 1.71875 -12.3125 L 5.484375 -12.3125 C 8.304688 -12.3125 9.71875 -11.175781 9.71875 -8.90625 C 9.71875 -7.96875 9.460938 -7.203125 8.953125 -6.609375 C 8.453125 -6.023438 7.753906 -5.640625 6.859375 -5.453125 L 10.0625 0 Z M 3.109375 -6.4375 L 5.265625 -6.4375 C 6.265625 -6.4375 7.023438 -6.644531 7.546875 -7.0625 C 8.078125 -7.476562 8.34375 -8.09375 8.34375 -8.90625 C 8.34375 -9.707031 8.082031 -10.285156 7.5625 -10.640625 C 7.050781 -11.003906 6.285156 -11.1875 5.265625 -11.1875 L 3.109375 -11.1875 Z M 3.109375 -6.4375 "/></g></g></g><g fill="#ffffff" fill-opacity="1"><g transform="translate(192.385061, 297.555282)"><g><path d="M 8.484375 0 L 5.4375 -5.328125 L 3.109375 -5.328125 L 3.109375 0 L 1.71875 0 L 1.71875 -12.3125 L 5.484375 -12.3125 C 8.304688 -12.3125 9.71875 -11.175781 9.71875 -8.90625 C 9.71875 -7.96875 9.460938 -7.203125 8.953125 -6.609375 C 8.453125 -6.023438 7.753906 -5.640625 6.859375 -5.453125 L 10.0625 0 Z M 3.109375 -6.4375 L 5.265625 -6.4375 C 6.265625 -6.4375 7.023438 -6.644531 7.546875 -7.0625 C 8.078125 -7.476562 8.34375 -8.09375 8.34375 -8.90625 C 8.34375 -9.707031 8.082031 -10.285156 7.5625 -10.640625 C 7.050781 -11.003906 6.285156 -11.1875 5.265625 -11.1875 L 3.109375 -11.1875 Z M 3.109375 -6.4375 "/></g></g></g><g fill="#ffffff" fill-opacity="1"><g transform="translate(213.143056, 297.555282)"><g><path d="M 7.328125 -3.875 L 2.734375 -3.875 L 1.484375 0 L 0.078125 0 L 4.296875 -12.3125 L 5.828125 -12.3125 L 10.015625 0 L 8.5625 0 Z M 6.96875 -4.984375 L 6.328125 -6.96875 C 5.828125 -8.53125 5.40625 -9.921875 5.0625 -11.140625 L 4.984375 -11.140625 C 4.566406 -9.628906 4.148438 -8.238281 3.734375 -6.96875 L 3.09375 -4.984375 Z M 6.96875 -4.984375 "/></g></g></g><g fill="#ffffff" fill-opacity="1"><g transform="translate(233.451607, 297.555282)"><g><path d="M 8.484375 0 L 5.4375 -5.328125 L 3.109375 -5.328125 L 3.109375 0 L 1.71875 0 L 1.71875 -12.3125 L 5.484375 -12.3125 C 8.304688 -12.3125 9.71875 -11.175781 9.71875 -8.90625 C 9.71875 -7.96875 9.460938 -7.203125 8.953125 -6.609375 C 8.453125 -6.023438 7.753906 -5.640625 6.859375 -5.453125 L 10.0625 0 Z M 3.109375 -6.4375 L 5.265625 -6.4375 C 6.265625 -6.4375 7.023438 -6.644531 7.546875 -7.0625 C 8.078125 -7.476562 8.34375 -8.09375 8.34375 -8.90625 C 8.34375 -9.707031 8.082031 -10.285156 7.5625 -10.640625 C 7.050781 -11.003906 6.285156 -11.1875 5.265625 -11.1875 L 3.109375 -11.1875 Z M 3.109375 -6.4375 "/></g></g></g><g fill="#ffffff" fill-opacity="1"><g transform="translate(187.94097, 316.170565)"><g/></g></g><g fill="#ffffff" fill-opacity="1"><g transform="translate(114.747939, 316.704706)"><g><path d="M 1.09375 -8.34375 L 6.03125 -8.34375 L 6.03125 -7.25 L 2.390625 -7.25 L 2.390625 -4.90625 L 5.46875 -4.90625 L 5.46875 -3.8125 L 2.390625 -3.8125 L 2.390625 -1.09375 L 6.15625 -1.09375 L 6.15625 0 L 1.09375 0 Z M 1.09375 -8.34375 "/></g></g></g><g fill="#ffffff" fill-opacity="1"><g transform="translate(128.482182, 316.704706)"><g><path d="M 1.09375 -8.34375 L 2.390625 -8.34375 L 2.390625 -1.09375 L 5.9375 -1.09375 L 5.9375 0 L 1.09375 0 Z M 1.09375 -8.34375 "/></g></g></g><g fill="#ffffff" fill-opacity="1"><g transform="translate(141.732362, 316.704706)"><g><path d="M 1.09375 -8.34375 L 6.03125 -8.34375 L 6.03125 -7.25 L 2.390625 -7.25 L 2.390625 -4.90625 L 5.46875 -4.90625 L 5.46875 -3.8125 L 2.390625 -3.8125 L 2.390625 -1.09375 L 6.15625 -1.09375 L 6.15625 0 L 1.09375 0 Z M 1.09375 -8.34375 "/></g></g></g><g fill="#ffffff" fill-opacity="1"><g transform="translate(155.466605, 316.704706)"><g><path d="M 4.34375 0.15625 C 3.644531 0.15625 3.015625 -0.0078125 2.453125 -0.34375 C 1.890625 -0.6875 1.445312 -1.179688 1.125 -1.828125 C 0.800781 -2.484375 0.640625 -3.257812 0.640625 -4.15625 C 0.640625 -5.039062 0.800781 -5.8125 1.125 -6.46875 C 1.457031 -7.125 1.910156 -7.625 2.484375 -7.96875 C 3.066406 -8.320312 3.707031 -8.5 4.40625 -8.5 C 4.894531 -8.5 5.335938 -8.398438 5.734375 -8.203125 C 6.140625 -8.015625 6.484375 -7.765625 6.765625 -7.453125 L 6.0625 -6.625 C 5.582031 -7.125 5.039062 -7.375 4.4375 -7.375 C 3.945312 -7.375 3.515625 -7.242188 3.140625 -6.984375 C 2.773438 -6.722656 2.488281 -6.351562 2.28125 -5.875 C 2.070312 -5.394531 1.96875 -4.832031 1.96875 -4.1875 C 1.96875 -3.195312 2.1875 -2.414062 2.625 -1.84375 C 3.070312 -1.269531 3.664062 -0.984375 4.40625 -0.984375 C 5.09375 -0.984375 5.707031 -1.28125 6.25 -1.875 L 6.953125 -1.0625 C 6.265625 -0.25 5.394531 0.15625 4.34375 0.15625 Z M 4.34375 0.15625 "/></g></g></g><g fill="#ffffff" fill-opacity="1"><g transform="translate(169.723122, 316.704706)"><g><path d="M 2.8125 -7.25 L 0.34375 -7.25 L 0.34375 -8.34375 L 6.5625 -8.34375 L 6.5625 -7.25 L 4.109375 -7.25 L 4.109375 0 L 2.8125 0 Z M 2.8125 -7.25 "/></g></g></g><g fill="#ffffff" fill-opacity="1"><g transform="translate(183.572011, 316.704706)"><g><path d="M 5.65625 0 L 3.78125 -3.375 L 2.390625 -3.375 L 2.390625 0 L 1.09375 0 L 1.09375 -8.34375 L 3.828125 -8.34375 C 4.765625 -8.34375 5.5 -8.15625 6.03125 -7.78125 C 6.5625 -7.40625 6.828125 -6.785156 6.828125 -5.921875 C 6.828125 -5.304688 6.671875 -4.800781 6.359375 -4.40625 C 6.054688 -4.007812 5.632812 -3.726562 5.09375 -3.5625 L 7.125 0 Z M 2.390625 -4.421875 L 3.671875 -4.421875 C 4.285156 -4.421875 4.75 -4.546875 5.0625 -4.796875 C 5.382812 -5.046875 5.546875 -5.421875 5.546875 -5.921875 C 5.546875 -6.421875 5.390625 -6.773438 5.078125 -6.984375 C 4.765625 -7.203125 4.296875 -7.3125 3.671875 -7.3125 L 2.390625 -7.3125 Z M 2.390625 -4.421875 "/></g></g></g><g fill="#ffffff" fill-opacity="1"><g transform="translate(197.930437, 316.704706)"><g><path d="M 4.265625 0.15625 C 3.554688 0.15625 2.925781 -0.0195312 2.375 -0.375 C 1.832031 -0.726562 1.40625 -1.234375 1.09375 -1.890625 C 0.789062 -2.546875 0.640625 -3.316406 0.640625 -4.203125 C 0.640625 -5.085938 0.789062 -5.851562 1.09375 -6.5 C 1.40625 -7.144531 1.832031 -7.640625 2.375 -7.984375 C 2.925781 -8.328125 3.554688 -8.5 4.265625 -8.5 C 4.984375 -8.5 5.613281 -8.328125 6.15625 -7.984375 C 6.707031 -7.640625 7.132812 -7.144531 7.4375 -6.5 C 7.75 -5.851562 7.90625 -5.085938 7.90625 -4.203125 C 7.90625 -3.316406 7.75 -2.546875 7.4375 -1.890625 C 7.132812 -1.234375 6.707031 -0.726562 6.15625 -0.375 C 5.613281 -0.0195312 4.984375 0.15625 4.265625 0.15625 Z M 4.265625 -0.984375 C 4.722656 -0.984375 5.125 -1.113281 5.46875 -1.375 C 5.820312 -1.632812 6.09375 -2.007812 6.28125 -2.5 C 6.46875 -2.988281 6.5625 -3.554688 6.5625 -4.203125 C 6.5625 -5.179688 6.351562 -5.953125 5.9375 -6.515625 C 5.519531 -7.085938 4.960938 -7.375 4.265625 -7.375 C 3.566406 -7.375 3.007812 -7.085938 2.59375 -6.515625 C 2.175781 -5.953125 1.96875 -5.179688 1.96875 -4.203125 C 1.96875 -3.554688 2.0625 -2.988281 2.25 -2.5 C 2.4375 -2.007812 2.703125 -1.632812 3.046875 -1.375 C 3.398438 -1.113281 3.804688 -0.984375 4.265625 -0.984375 Z M 4.265625 -0.984375 "/></g></g></g><g fill="#ffffff" fill-opacity="1"><g transform="translate(213.409829, 316.704706)"><g><path d="M 1.09375 -8.34375 L 2.4375 -8.34375 L 5.21875 -3.421875 L 6.09375 -1.65625 L 6.140625 -1.65625 C 6.128906 -1.925781 6.113281 -2.117188 6.09375 -2.234375 C 6.082031 -2.328125 6.0625 -2.609375 6.03125 -3.078125 C 6 -3.554688 5.984375 -4.003906 5.984375 -4.421875 L 5.984375 -8.34375 L 7.21875 -8.34375 L 7.21875 0 L 5.875 0 L 3.09375 -4.953125 L 2.21875 -6.6875 L 2.171875 -6.6875 L 2.21875 -6.0625 C 2.226562 -5.957031 2.25 -5.675781 2.28125 -5.21875 C 2.3125 -4.769531 2.328125 -4.351562 2.328125 -3.96875 L 2.328125 0 L 1.09375 0 Z M 1.09375 -8.34375 "/></g></g></g><g fill="#ffffff" fill-opacity="1"><g transform="translate(228.659928, 316.704706)"><g><path d="M 1.09375 -8.34375 L 2.390625 -8.34375 L 2.390625 0 L 1.09375 0 Z M 1.09375 -8.34375 "/></g></g></g><g fill="#ffffff" fill-opacity="1"><g transform="translate(239.094947, 316.704706)"><g><path d="M 4.34375 0.15625 C 3.644531 0.15625 3.015625 -0.0078125 2.453125 -0.34375 C 1.890625 -0.6875 1.445312 -1.179688 1.125 -1.828125 C 0.800781 -2.484375 0.640625 -3.257812 0.640625 -4.15625 C 0.640625 -5.039062 0.800781 -5.8125 1.125 -6.46875 C 1.457031 -7.125 1.910156 -7.625 2.484375 -7.96875 C 3.066406 -8.320312 3.707031 -8.5 4.40625 -8.5 C 4.894531 -8.5 5.335938 -8.398438 5.734375 -8.203125 C 6.140625 -8.015625 6.484375 -7.765625 6.765625 -7.453125 L 6.0625 -6.625 C 5.582031 -7.125 5.039062 -7.375 4.4375 -7.375 C 3.945312 -7.375 3.515625 -7.242188 3.140625 -6.984375 C 2.773438 -6.722656 2.488281 -6.351562 2.28125 -5.875 C 2.070312 -5.394531 1.96875 -4.832031 1.96875 -4.1875 C 1.96875 -3.195312 2.1875 -2.414062 2.625 -1.84375 C 3.070312 -1.269531 3.664062 -0.984375 4.40625 -0.984375 C 5.09375 -0.984375 5.707031 -1.28125 6.25 -1.875 L 6.953125 -1.0625 C 6.265625 -0.25 5.394531 0.15625 4.34375 0.15625 Z M 4.34375 0.15625 "/></g></g></g><g fill="#ffffff" fill-opacity="1"><g transform="translate(253.35147, 316.704706)"><g><path d="M 3.484375 0.15625 C 2.910156 0.15625 2.363281 0.046875 1.84375 -0.171875 C 1.332031 -0.390625 0.890625 -0.691406 0.515625 -1.078125 L 1.28125 -1.96875 C 1.582031 -1.664062 1.925781 -1.425781 2.3125 -1.25 C 2.707031 -1.070312 3.101562 -0.984375 3.5 -0.984375 C 4 -0.984375 4.390625 -1.085938 4.671875 -1.296875 C 4.953125 -1.515625 5.09375 -1.8125 5.09375 -2.1875 C 5.09375 -2.414062 5.035156 -2.609375 4.921875 -2.765625 C 4.816406 -2.929688 4.675781 -3.0625 4.5 -3.15625 C 4.332031 -3.257812 4.082031 -3.378906 3.75 -3.515625 L 2.59375 -4.03125 C 1.457031 -4.5 0.890625 -5.222656 0.890625 -6.203125 C 0.890625 -6.640625 1.003906 -7.03125 1.234375 -7.375 C 1.472656 -7.726562 1.800781 -8.003906 2.21875 -8.203125 C 2.632812 -8.398438 3.101562 -8.5 3.625 -8.5 C 4.101562 -8.5 4.5625 -8.40625 5 -8.21875 C 5.445312 -8.03125 5.828125 -7.773438 6.140625 -7.453125 L 5.46875 -6.625 C 4.90625 -7.125 4.289062 -7.375 3.625 -7.375 C 3.1875 -7.375 2.835938 -7.273438 2.578125 -7.078125 C 2.328125 -6.878906 2.203125 -6.613281 2.203125 -6.28125 C 2.203125 -6.0625 2.265625 -5.875 2.390625 -5.71875 C 2.515625 -5.570312 2.660156 -5.453125 2.828125 -5.359375 C 3.003906 -5.265625 3.25 -5.15625 3.5625 -5.03125 L 4.71875 -4.53125 C 5.257812 -4.300781 5.675781 -4.007812 5.96875 -3.65625 C 6.257812 -3.3125 6.40625 -2.851562 6.40625 -2.28125 C 6.40625 -1.832031 6.285156 -1.421875 6.046875 -1.046875 C 5.816406 -0.679688 5.476562 -0.390625 5.03125 -0.171875 C 4.59375 0.046875 4.078125 0.15625 3.484375 0.15625 Z M 3.484375 0.15625 "/></g></g></g></svg>