<?xml version="1.0" encoding="UTF-8"?>
<svg xmlns="http://www.w3.org/2000/svg" xmlns:xlink="http://www.w3.org/1999/xlink" width="35px" height="35px" viewBox="0 0 35 35" version="1.1">
<g id="surface1">
<path style="fill:none;stroke-width:1.5;stroke-linecap:round;stroke-linejoin:round;stroke:rgb(0%,0%,0%);stroke-opacity:1;stroke-miterlimit:4;" d="M 6.500893 6.999107 C 7.960714 5.539286 9.594643 4.419643 10.698214 3.741964 C 11.501786 3.246429 12.498214 3.246429 13.301786 3.741964 C 14.405357 4.419643 16.039286 5.539286 17.499107 6.999107 C 20.667857 10.167857 20.499107 12 20.499107 15 C 20.499107 16.408929 20.389286 17.598214 20.271429 18.463393 C 20.148214 19.371429 19.355357 20.000893 18.439286 20.000893 L 17.000893 20.000893 C 15.894643 20.000893 15 19.103571 15 18 L 15 15.999107 C 15 15.203571 14.683929 14.440179 14.121429 13.877679 C 13.558929 13.315179 12.795536 12.999107 12 12.999107 C 11.204464 12.999107 10.441071 13.315179 9.878571 13.877679 C 9.316071 14.440179 9 15.203571 9 15.999107 L 9 18 C 9 19.103571 8.105357 20.000893 6.999107 20.000893 L 5.560714 20.000893 C 4.644643 20.000893 3.851786 19.371429 3.728571 18.463393 C 3.610714 17.598214 3.500893 16.408929 3.500893 15 C 3.500893 12 3.332143 10.167857 6.500893 6.999107 Z M 6.500893 6.999107 " transform="matrix(1.458333,0,0,1.458333,0,0)"/>
</g>
</svg>
