<?xml version="1.0" encoding="UTF-8"?>
<svg xmlns="http://www.w3.org/2000/svg" xmlns:xlink="http://www.w3.org/1999/xlink" width="35px" height="35px" viewBox="0 0 35 35" version="1.1">
<g id="surface1">
<path style="fill:none;stroke-width:1.5;stroke-linecap:butt;stroke-linejoin:miter;stroke:rgb(0%,0%,0%);stroke-opacity:1;stroke-miterlimit:4;" d="M 11.000893 3 L 12.999107 3 C 13.553571 3 14.000893 3.447321 14.000893 3.999107 L 14.000893 4.569643 C 14.000893 4.995536 14.2875 5.367857 14.68125 5.53125 C 15.077679 5.697321 15.538393 5.633036 15.841071 5.330357 L 16.242857 4.928571 C 16.633929 4.5375 17.266071 4.5375 17.657143 4.928571 L 19.071429 6.342857 C 19.4625 6.733929 19.4625 7.366071 19.071429 7.757143 L 18.669643 8.158929 C 18.366964 8.461607 18.302679 8.922321 18.46875 9.31875 C 18.632143 9.7125 19.004464 9.999107 19.430357 9.999107 L 20.000893 9.999107 C 20.552679 9.999107 21 10.446429 21 11.000893 L 21 12.999107 C 21 13.553571 20.552679 14.000893 20.000893 14.000893 L 19.430357 14.000893 C 19.004464 14.000893 18.632143 14.2875 18.46875 14.68125 C 18.302679 15.077679 18.366964 15.538393 18.669643 15.841071 L 19.071429 16.242857 C 19.4625 16.633929 19.4625 17.266071 19.071429 17.657143 L 17.657143 19.071429 C 17.266071 19.4625 16.633929 19.4625 16.242857 19.071429 L 15.841071 18.669643 C 15.538393 18.366964 15.077679 18.302679 14.68125 18.46875 C 14.2875 18.632143 14.000893 19.004464 14.000893 19.430357 L 14.000893 20.000893 C 14.000893 20.552679 13.553571 21 12.999107 21 L 11.000893 21 C 10.446429 21 9.999107 20.552679 9.999107 20.000893 L 9.999107 19.430357 C 9.999107 19.004464 9.7125 18.632143 9.31875 18.46875 C 8.922321 18.302679 8.461607 18.366964 8.158929 18.669643 L 7.757143 19.071429 C 7.366071 19.4625 6.733929 19.4625 6.342857 19.071429 L 4.928571 17.657143 C 4.5375 17.266071 4.5375 16.633929 4.928571 16.242857 L 5.330357 15.841071 C 5.633036 15.538393 5.697321 15.077679 5.53125 14.68125 C 5.367857 14.2875 4.995536 14.000893 4.569643 14.000893 L 3.999107 14.000893 C 3.447321 14.000893 3 13.553571 3 12.999107 L 3 11.000893 C 3 10.446429 3.447321 9.999107 3.999107 9.999107 L 4.569643 9.999107 C 4.995536 9.999107 5.367857 9.7125 5.53125 9.31875 C 5.697321 8.922321 5.633036 8.461607 5.330357 8.158929 L 4.928571 7.757143 C 4.5375 7.366071 4.5375 6.733929 4.928571 6.342857 L 6.342857 4.928571 C 6.733929 4.5375 7.366071 4.5375 7.757143 4.928571 L 8.158929 5.330357 C 8.461607 5.633036 8.922321 5.697321 9.31875 5.53125 C 9.7125 5.367857 9.999107 4.995536 9.999107 4.569643 L 9.999107 3.999107 C 9.999107 3.447321 10.446429 3 11.000893 3 Z M 11.000893 3 " transform="matrix(1.458333,0,0,1.458333,0,0)"/>
<path style="fill:none;stroke-width:1.5;stroke-linecap:butt;stroke-linejoin:miter;stroke:rgb(0%,0%,0%);stroke-opacity:1;stroke-miterlimit:4;" d="M 14.000893 12 C 14.000893 13.103571 13.103571 14.000893 12 14.000893 C 10.896429 14.000893 9.999107 13.103571 9.999107 12 C 9.999107 10.896429 10.896429 9.999107 12 9.999107 C 13.103571 9.999107 14.000893 10.896429 14.000893 12 Z M 14.000893 12 " transform="matrix(1.458333,0,0,1.458333,0,0)"/>
</g>
</svg>
